<svg xmlns="http://www.w3.org/2000/svg" width="1200" height="620" viewBox="0 0 1200 620">
<rect width="100%" height="100%" fill="#151515"/>
<text x="70" y="24" fill="#e6e6e6" font-size="18" font-family="Arial">TESTA 周线支撑压力图</text>
<rect x="70" y="34" width="1020" height="530" fill="#1d1d1d" stroke="#363636"/>
<line x1="70" y1="34.00" x2="1090" y2="34.00" stroke="#2b2b2b"/>
<text x="1100" y="38.00" fill="#a8a8a8" font-size="12" font-family="Arial">105.60</text>
<line x1="70" y1="166.50" x2="1090" y2="166.50" stroke="#2b2b2b"/>
<text x="1100" y="170.50" fill="#a8a8a8" font-size="12" font-family="Arial">101.68</text>
<line x1="70" y1="299.00" x2="1090" y2="299.00" stroke="#2b2b2b"/>
<text x="1100" y="303.00" fill="#a8a8a8" font-size="12" font-family="Arial">97.76</text>
<line x1="70" y1="431.50" x2="1090" y2="431.50" stroke="#2b2b2b"/>
<text x="1100" y="435.50" fill="#a8a8a8" font-size="12" font-family="Arial">93.84</text>
<line x1="70" y1="564.00" x2="1090" y2="564.00" stroke="#2b2b2b"/>
<text x="1100" y="568.00" fill="#a8a8a8" font-size="12" font-family="Arial">89.92</text>
<rect x="70" y="70.55" width="1020" height="41.88" fill="#e34b4b" opacity="0.16"/>
<text x="1085" y="84.55" text-anchor="end" fill="#e34b4b" font-size="12" font-family="Arial">C 103.28-104.52</text>
<line x1="70.00" y1="223.29" x2="70.00" y2="527.45" stroke="#d95858" stroke-width="1.4"/>
<rect x="64.00" y="240.19" width="12.00" height="253.46" fill="#d95858" opacity="0.78"/>
<line x1="325.00" y1="88.11" x2="325.00" y2="257.09" stroke="#d95858" stroke-width="1.4"/>
<rect x="319.00" y="206.40" width="12.00" height="27.04" fill="#d95858" opacity="0.78"/>
<line x1="580.00" y1="94.87" x2="580.00" y2="219.91" stroke="#d95858" stroke-width="1.4"/>
<rect x="574.00" y="162.46" width="12.00" height="37.17" fill="#d95858" opacity="0.78"/>
<line x1="835.00" y1="91.49" x2="835.00" y2="240.19" stroke="#d95858" stroke-width="1.4"/>
<rect x="829.00" y="142.19" width="12.00" height="16.90" fill="#d95858" opacity="0.78"/>
<line x1="1090.00" y1="94.87" x2="1090.00" y2="169.22" stroke="#d95858" stroke-width="1.4"/>
<rect x="1084.00" y="115.15" width="12.00" height="33.80" fill="#d95858" opacity="0.78"/>
<text x="70" y="598" fill="#a8a8a8" font-size="12" font-family="Arial">2026-04</text>
<text x="1090" y="598" text-anchor="end" fill="#a8a8a8" font-size="12" font-family="Arial">2026-05</text>
</svg>
